<?xml version="1.0" encoding="utf-8"?>
<!-- Generator: Adobe Illustrator 18.1.1, SVG Export Plug-In . SVG Version: 6.00 Build 0)  -->
<!DOCTYPE svg PUBLIC "-//W3C//DTD SVG 1.1//EN" "http://www.w3.org/Graphics/SVG/1.1/DTD/svg11.dtd">
<svg version="1.1" id="Layer_1" xmlns="http://www.w3.org/2000/svg" xmlns:xlink="http://www.w3.org/1999/xlink" x="0px" y="0px"
	 viewBox="0 0 312.8 47.9" enable-background="new 0 0 312.8 47.9" xml:space="preserve">
<polygon fill="#FFFFFF" points="20.2,10.3 17.3,17.4 10,15.3 13.7,22 7.5,26.4 15,27.7 14.6,35.3 20.2,30.2 25.9,35.3 25.4,27.7 
	32.9,26.4 26.7,22 30.4,15.3 23.1,17.4 "/>
<g>
	<path fill="#FFFFFF" d="M40.5,23.2L40.5,23.2c0-6,4.7-10.9,11-10.9c3.8,0,6.1,1,8.3,2.9l-2.9,3.5c-1.6-1.4-3.1-2.1-5.5-2.1
		c-3.4,0-6,3-6,6.5v0.1c0,3.8,2.6,6.7,6.4,6.7c1.7,0,3.2-0.4,4.3-1.3v-3h-4.6v-4h9.1v9.1c-2.2,1.8-5.1,3.3-9,3.3
		C45,34,40.5,29.4,40.5,23.2z"/>
	<path fill="#FFFFFF" d="M63.3,23.2L63.3,23.2c0-6,4.7-10.9,11.2-10.9s11.1,4.8,11.1,10.8v0.1c0,6-4.7,10.9-11.2,10.9
		S63.3,29.2,63.3,23.2z M80.8,23.2L80.8,23.2c0-3.7-2.6-6.7-6.4-6.7s-6.3,2.9-6.3,6.5v0.1c0,3.6,2.6,6.6,6.4,6.6
		S80.8,26.8,80.8,23.2z"/>
	<path fill="#FFFFFF" d="M85.8,12.6h5.1l5.5,14.8l5.5-14.8h5l-8.5,21.1h-4.1L85.8,12.6z"/>
	<path fill="#FFFFFF" d="M105.1,28.8h4.9v4.8h-4.9V28.8z"/>
	<path fill="#FFFFFF" d="M120.8,12.5h4.3l9,21.1h-4.8l-1.9-4.7h-8.9l-1.9,4.7h-4.7L120.8,12.5z M125.7,24.9l-2.8-6.8l-2.8,6.8H125.7
		z"/>
	<path fill="#FFFFFF" d="M135.5,24.6v-12h4.6v11.9c0,3.4,1.7,5.2,4.5,5.2c2.8,0,4.5-1.7,4.5-5v-12h4.6v11.8c0,6.4-3.6,9.5-9.2,9.5
		S135.5,30.8,135.5,24.6z"/>
</g>
<g>
	<path fill="#FFB000" d="M184.7,12.9h8.9c2.4,0,4.3,0.7,5.5,1.9c0.9,0.9,1.3,2,1.3,3.4v0.1c0,2.7-1.7,4.1-3.3,4.9
		c2.5,0.8,4.5,2.2,4.5,5.1v0.1c0,3.6-3,5.7-7.6,5.7h-9.3V12.9z M198.1,18.4c0-2.1-1.7-3.4-4.7-3.4H187v7.2h6.2
		C196.1,22.3,198.1,21,198.1,18.4L198.1,18.4z M193.6,24.4H187v7.4h7c3.2,0,5.2-1.4,5.2-3.8V28C199.2,25.7,197.3,24.4,193.6,24.4z"
		/>
	<path fill="#FFB000" d="M205,28v-9.6h2.3v9.1c0,2.9,1.6,4.7,4.3,4.7c2.6,0,4.7-2,4.7-4.9v-8.9h2.3v15.5h-2.3v-2.7
		c-1.1,1.7-2.6,3-5.3,3C207.1,34.2,205,31.7,205,28z"/>
	<path fill="#FFB000" d="M221.6,31.9l1.2-1.7c1.7,1.3,3.5,2,5.4,2c1.9,0,3.2-1,3.2-2.5v-0.1c0-1.6-1.8-2.2-3.9-2.7
		c-2.4-0.7-5.1-1.5-5.1-4.4v-0.1c0-2.7,2.2-4.4,5.3-4.4c1.9,0,4,0.7,5.6,1.7l-1,1.7c-1.4-0.9-3.1-1.5-4.6-1.5c-1.8,0-3,1-3,2.3v0.1
		c0,1.5,1.9,2,4,2.7c2.4,0.7,5,1.6,5,4.4v0.1c0,2.9-2.4,4.6-5.5,4.6C225.8,34.2,223.4,33.3,221.6,31.9z"/>
	<path fill="#FFB000" d="M237.2,12.4h2.6V15h-2.6V12.4z M237.3,18.4h2.3v15.5h-2.3V18.4z"/>
	<path fill="#FFB000" d="M244.3,18.4h2.3v2.7c1-1.7,2.6-3,5.3-3c3.8,0,5.9,2.5,5.9,6.2v9.6h-2.3v-9.1c0-2.9-1.6-4.7-4.3-4.7
		c-2.7,0-4.7,1.9-4.7,4.9v8.9h-2.3V18.4z"/>
	<path fill="#FFB000" d="M261,26.2L261,26.2c0-4.5,3.1-8.1,7.4-8.1c4.6,0,7.2,3.7,7.2,8.2c0,0.3,0,0.5,0,0.8h-12.3
		c0.3,3.4,2.7,5.3,5.5,5.3c2.1,0,3.6-0.9,4.9-2.2l1.4,1.3c-1.6,1.7-3.4,2.9-6.4,2.9C264.5,34.3,261,31,261,26.2z M273.4,25.3
		c-0.2-2.8-1.9-5.3-4.9-5.3c-2.7,0-4.7,2.3-5,5.3H273.4z"/>
	<path fill="#FFB000" d="M277.7,31.9l1.2-1.7c1.7,1.3,3.5,2,5.4,2c1.9,0,3.2-1,3.2-2.5v-0.1c0-1.6-1.8-2.2-3.9-2.7
		c-2.4-0.7-5.1-1.5-5.1-4.4v-0.1c0-2.7,2.2-4.4,5.3-4.4c1.9,0,4,0.7,5.6,1.7l-1,1.7c-1.4-0.9-3.1-1.5-4.6-1.5c-1.8,0-3,1-3,2.3v0.1
		c0,1.5,1.9,2,4,2.7c2.4,0.7,5,1.6,5,4.4v0.1c0,2.9-2.4,4.6-5.5,4.6C281.9,34.2,279.4,33.3,277.7,31.9z"/>
	<path fill="#FFB000" d="M291.6,31.9l1.2-1.7c1.7,1.3,3.5,2,5.4,2c1.9,0,3.2-1,3.2-2.5v-0.1c0-1.6-1.8-2.2-3.9-2.7
		c-2.4-0.7-5.1-1.5-5.1-4.4v-0.1c0-2.7,2.2-4.4,5.3-4.4c1.9,0,4,0.7,5.6,1.7l-1,1.7c-1.4-0.9-3.1-1.5-4.6-1.5c-1.8,0-3,1-3,2.3v0.1
		c0,1.5,1.9,2,4,2.7c2.4,0.7,5,1.6,5,4.4v0.1c0,2.9-2.4,4.6-5.5,4.6C295.8,34.2,293.3,33.3,291.6,31.9z"/>
</g>
<rect x="168.2" y="12.9" fill="#FFFFFF" width="2" height="21.3"/>
</svg>
